HIERARCHY
ROOT Hips
{
	OFFSET 0.000000 0.000000 0.000000
	CHANNELS 6 Xposition Yposition Zposition Zrotation Yrotation Xrotation 
	JOINT LHipJoint
	{
		OFFSET 0.000000 0.000000 0.000000
		CHANNELS 3 Zrotation Yrotation Xrotation
		JOINT LeftUpLeg
		{
			OFFSET 1.363060 -1.794630 0.839290
			CHANNELS 3 Zrotation Yrotation Xrotation
			JOINT LeftLeg
			{
				OFFSET 2.448110 -6.726130 0.000000
				CHANNELS 3 Zrotation Yrotation Xrotation
				JOINT LeftFoot
				{
					OFFSET 2.562200 -7.039590 0.000000
					CHANNELS 3 Zrotation Yrotation Xrotation
					JOINT LeftToeBase
					{
						OFFSET 0.157640 -0.433110 2.322550
						CHANNELS 3 Zrotation Yrotation Xrotation
						End Site
						{
							OFFSET 0.000000 0.000000 0.000000
						}
					}
				}
			}
		}
	}
	JOINT RHipJoint
	{
		OFFSET 0.000000 0.000000 0.000000
		CHANNELS 3 Zrotation Yrotation Xrotation
		JOINT RightUpLeg
		{
			OFFSET -1.305520 -1.794630 0.839290
			CHANNELS 3 Zrotation Yrotation Xrotation
			JOINT RightLeg
			{
				OFFSET -2.542530 -6.985550 0.000000
				CHANNELS 3 Zrotation Yrotation Xrotation
				JOINT RightFoot
				{
					OFFSET -2.568260 -7.056230 0.000000
					CHANNELS 3 Zrotation Yrotation Xrotation
					JOINT RightToeBase
					{
						OFFSET -0.164730 -0.452590 2.363150
						CHANNELS 3 Zrotation Yrotation Xrotation
						End Site
						{
							OFFSET 0.000000 0.000000 0.000000
						}
					}
				}
			}
		}
	}
}
MOTION
Frames: 33
Frame Time: 0.008333
-0.963749 17.009470 -0.317644 18.041426 83.494668 22.024333 -10.372805 0.987321 2.862897 -9.794503 1.905169 -27.985004 -1.973421 0.329641 18.608390 0.648039 4.159670 0.752781 0.774400 -0.000000 -25.486900 9.995022 -4.295302 -1.251660 3.074856 -11.938383 5.819845 0.463447 -2.750298 30.803592 -0.145417 2.757371 12.640554 0.905800 0.000000 -81.377800
-0.781726 17.010540 -0.297511 19.382703 83.259140 23.165694 -10.360985 1.054384 2.699262 -10.143098 2.597273 -27.583217 -1.984872 0.371461 19.482107 0.646918 4.124506 0.335098 0.723600 -0.000000 -25.044100 10.236015 -4.309590 -1.347712 2.272714 -12.883788 4.543055 0.186307 -2.907454 33.600872 -0.351522 2.133325 14.805169 0.872400 -0.000000 -81.591100
-0.602662 17.010956 -0.276764 20.468715 83.008350 24.060221 -10.340736 1.120962 2.542279 -10.458229 3.265300 -27.149843 -2.004617 0.403752 20.294990 0.643630 4.045778 -0.240970 0.654800 -0.000001 -24.645400 10.467997 -4.283441 -1.448291 1.546962 -13.795250 3.208961 -0.072102 -3.035801 36.413198 -0.602343 1.100279 16.780454 0.637899 0.000000 -80.771800
-0.426337 17.010746 -0.255867 21.219775 82.734237 24.630937 -10.317934 1.187034 2.397055 -10.720414 3.887343 -26.681397 -2.028785 0.428337 21.043649 0.641760 3.948131 -0.949573 0.574200 0.000000 -24.330700 10.679410 -4.218917 -1.552672 0.924068 -14.643587 1.841322 -0.301962 -3.140471 39.195238 -0.883744 -0.339027 18.428591 0.165900 -0.000000 -78.966200
-0.252653 17.010186 -0.234870 21.647211 82.422819 24.891456 -10.294548 1.252019 2.266897 -10.928262 4.441887 -26.165057 -2.053852 0.444828 21.707775 0.646557 3.876396 -1.748667 0.490800 0.000000 -24.141500 10.866878 -4.121980 -1.658509 0.407692 -15.404861 0.444614 -0.499548 -3.230199 41.919081 -1.181846 -2.144937 19.628357 -0.540899 -0.000000 -76.285600
-0.081286 17.009642 -0.214069 21.718248 82.062524 24.809762 -10.275511 1.316282 2.152895 -11.074513 4.925894 -25.597171 -2.076479 0.454505 22.278010 0.661868 3.863343 -2.599887 0.409200 0.000000 -24.107600 11.024085 -4.000409 -1.762703 0.010968 -16.057028 -0.969513 -0.665406 -3.312708 44.544454 -1.481174 -4.226134 20.275443 -1.428600 -0.000000 -72.973900
0.088103 17.009462 -0.193894 21.385447 81.646496 24.338310 -10.267730 1.380821 2.054814 -11.148408 5.351484 -24.985396 -2.093894 0.459968 22.758655 0.689591 3.926299 -3.471543 0.330700 -0.000000 -24.242099 11.144221 -3.863010 -1.861917 -0.249054 -16.589221 -2.392474 -0.803942 -3.393155 47.033143 -1.766925 -6.447008 20.309005 -2.395900 0.000000 -69.268900
0.255843 17.010121 -0.174375 20.685423 81.166244 23.514131 -10.272722 1.446392 1.970450 -11.153058 5.732782 -24.331700 -2.104448 0.461966 23.143694 0.731444 4.085945 -4.328638 0.255800 0.000001 -24.547600 11.228601 -3.717992 -1.951447 -0.371734 -16.993659 -3.826090 -0.920618 -3.474686 49.357667 -2.027876 -8.657330 19.720084 -3.319200 0.000001 -65.371100
0.421998 17.012147 -0.155154 19.717661 80.612903 22.433324 -10.287307 1.513544 1.895004 -11.103551 6.084838 -23.626866 -2.107651 0.459789 23.416181 0.788542 4.360550 -5.136568 0.185100 0.000000 -25.010100 11.284322 -3.571559 -2.026627 -0.371153 -17.262304 -5.269401 -1.019210 -3.558520 51.493365 -2.255391 -10.709509 18.546270 -4.078500 0.000000 -61.454100
0.586928 17.015829 -0.136414 18.501098 79.990307 21.114421 -10.313828 1.583479 1.825200 -10.995737 6.437013 -22.886988 -2.103441 0.455586 23.591116 0.858327 4.733749 -5.881174 0.115700 0.000000 -25.596500 11.311725 -3.428902 -2.084022 -0.241152 -17.404362 -6.718998 -1.101156 -3.641232 53.414058 -2.441053 -12.471633 16.860457 -4.580300 0.000000 -57.579800
0.750679 17.021374 -0.117771 17.140811 79.302236 19.657965 -10.348507 1.656344 1.755678 -10.842552 6.809034 -22.108465 -2.092976 0.448989 23.664418 0.938397 5.193598 -6.546713 0.047300 0.000000 -26.266900 11.317971 -3.293019 -2.121927 0.000639 -17.430673 -8.168023 -1.164627 -3.720118 55.100071 -2.579132 -13.849124 14.763568 -4.776600 -0.000001 -53.787400
0.913288 17.028877 -0.098948 15.720263 78.559244 18.142454 -10.388944 1.732139 1.682086 -10.652322 7.219087 -21.290612 -2.077895 0.440062 23.638644 1.024768 5.714383 -7.126389 -0.020299 -0.000000 -26.977201 11.307960 -3.165510 -2.140565 0.337677 -17.361124 -9.605200 -1.205865 -3.791666 56.533347 -2.665759 -14.788604 12.376079 -4.670400 0.000000 -50.090800
1.074686 17.038219 -0.079638 14.318101 77.776115 16.640204 -10.432677 1.810500 1.600637 -10.434400 7.678604 -20.428810 -2.060245 0.428677 23.515791 1.112895 6.265846 -7.619031 -0.086200 0.000000 -27.687600 11.285996 -3.046484 -2.142657 0.748753 -17.222514 -11.016079 -1.220431 -3.853048 57.699892 -2.699658 -15.277823 9.828147 -4.309600 0.000000 -46.515600
1.234836 17.049127 -0.059443 12.999626 76.971117 15.210351 -10.477622 1.890948 1.508632 -10.197745 8.192089 -19.516953 -2.042222 0.414688 23.297890 1.198014 6.815838 -8.027527 -0.149200 0.000000 -28.368500 11.255401 -2.934754 -2.132994 1.210896 -17.047113 -12.385586 -1.204859 -3.902249 58.590096 -2.683141 -15.344266 7.252443 -3.773700 0.000001 -43.117901
1.393652 17.061223 -0.038135 11.805407 76.163714 13.887776 -10.522482 1.973162 1.404987 -9.949089 8.757029 -18.548876 -2.025733 0.398095 22.987169 1.275764 7.334565 -8.357391 -0.207500 0.000000 -29.002200 11.218184 -2.828182 -2.117454 1.704304 -16.868327 -13.699735 -1.158262 -3.937833 59.199507 -2.622951 -15.051730 4.779253 -3.156500 -0.000000 -40.020300
1.551051 17.074048 -0.015464 10.756562 75.372635 12.690634 -10.566434 2.057016 1.290506 -9.693221 9.365602 -17.522602 -2.012270 0.379000 22.587912 1.342595 7.797083 -8.615905 -0.259700 -0.000000 -29.583200 11.175492 -2.724241 -2.101566 2.215117 -16.717096 -14.950894 -1.082964 -3.958939 59.530920 -2.530059 -14.491941 2.521778 -2.544300 -0.000000 -37.388400
1.706931 17.087021 0.008748 9.861775 74.614510 11.622839 -10.608712 2.142387 1.165750 -9.433594 10.006452 -16.431205 -2.002655 0.357565 22.101670 1.396274 8.187413 -8.809793 -0.304199 0.000000 -30.117200 11.128429 -2.620121 -2.092194 2.730451 -16.621594 -16.129609 -0.984106 -3.965753 59.593364 -2.418202 -13.771276 0.563672 -2.000100 0.000000 -35.384000
1.861432 17.099676 0.034664 9.110853 73.902718 10.679157 -10.649192 2.229404 1.035122 -9.171838 10.665264 -15.285389 -1.997088 0.333939 21.537687 1.435842 8.496287 -8.946562 -0.340399 -0.000000 -30.615800 11.076715 -2.514193 -2.091759 3.251135 -16.599572 -17.243794 -0.868342 -3.958354 59.405439 -2.302768 -13.002357 -1.055988 -1.557100 -0.000000 -34.095899
2.014623 17.111505 0.062344 8.491862 73.246405 9.850439 -10.687554 2.318047 0.901838 -8.909487 11.328481 -14.090723 -1.995163 0.308208 20.902291 1.461782 8.724464 -9.032048 -0.367499 -0.000000 -31.095300 11.020256 -2.405191 -2.103142 3.776699 -16.662802 -18.298282 -0.741903 -3.937757 58.990204 -2.197993 -12.285748 -2.347106 -1.220099 0.000000 -33.491400
2.166665 17.122114 0.091876 7.988270 72.649624 9.126183 -10.723669 2.408207 0.769621 -8.647863 11.984737 -12.859322 -1.996102 0.280422 20.204275 1.475538 8.879002 -9.070724 -0.385400 0.000000 -31.572800 10.958369 -2.292778 -2.126617 4.311479 -16.812815 -19.303518 -0.609347 -3.905068 58.374012 -2.115813 -11.702443 -3.361276 -0.975200 0.000000 -33.414700
2.317752 17.131210 0.123327 7.582487 72.112623 8.496408 -10.757594 2.499760 0.642103 -8.387781 12.625836 -11.605648 -1.998850 0.250552 19.453497 1.479283 8.972238 -9.066149 -0.394200 -0.000000 -32.063400 10.889933 -2.177531 -2.160279 4.861590 -17.042773 -20.271516 -0.472935 -3.861300 57.582285 -2.064676 -11.306008 -4.176116 -0.800100 0.000000 -33.629701
2.468106 17.138615 0.156731 7.256041 71.630533 7.950297 -10.789451 2.592358 0.521260 -8.129667 13.248483 -10.343642 -2.002425 0.218664 18.659314 1.475354 9.018370 -9.020967 -0.394200 -0.000000 -32.579500 10.813821 -2.060283 -2.201106 5.432606 -17.337674 -21.212438 -0.332942 -3.807280 56.636937 -2.048934 -11.118564 -4.876789 -0.670500 0.000000 -33.881500
2.617919 17.144316 0.192054 6.989881 71.195315 7.476320 -10.819778 2.685723 0.408816 -7.872349 13.853641 -9.089130 -2.005879 0.184884 17.832799 1.465927 9.031352 -8.937070 -0.386000 -0.000000 -33.128499 10.728639 -1.942695 -2.243932 6.030969 -17.676687 -22.135800 -0.188285 -3.743267 55.554101 -2.069061 -11.132724 -5.538974 -0.564800 -0.000000 -33.942600
2.767408 17.148357 0.229274 6.764484 70.796480 7.061922 -10.849306 2.779546 0.305128 -7.613694 14.445867 -7.856191 -2.008548 0.149531 16.985361 1.452714 9.022552 -8.816533 -0.370200 0.000000 -33.713300 10.633179 -1.826749 -2.283232 6.662175 -18.036100 -23.047253 -0.037242 -3.669114 54.343566 -2.121882 -11.314961 -6.218116 -0.464500 0.000000 -33.646900
2.916651 17.150854 0.268267 6.561734 70.422264 6.694011 -10.878979 2.873522 0.209669 -7.349442 15.031279 -6.656524 -2.010004 0.113166 16.129233 1.436804 8.999484 -8.661720 -0.347400 -0.000001 -34.332600 10.526577 -1.714602 -2.313408 7.330652 -18.391239 -23.948702 0.121769 -3.584247 53.009132 -2.201215 -11.613080 -6.942384 -0.356800 0.000000 -32.908200
3.065741 17.151982 0.308928 6.364095 70.060772 6.358681 -10.909818 2.967364 0.121130 -7.074477 15.615902 -5.499194 -2.010047 0.076614 15.277236 1.418760 8.966025 -8.475500 -0.318500 -0.000000 -34.982600 10.408418 -1.608495 -2.329646 8.039616 -18.719029 -24.837424 0.289673 -3.487804 51.549846 -2.298823 -11.966501 -7.711813 -0.234900 0.000000 -31.729300
3.214636 17.151893 0.351129 6.155812 69.701957 6.042699 -10.942890 3.060813 0.038437 -6.783068 16.203328 -4.392735 -2.008691 0.040941 14.444992 1.398570 8.921524 -8.262313 -0.284500 -0.000000 -35.658300 10.278661 -1.510769 -2.327696 8.791573 -18.999518 -25.708723 0.466352 -3.378724 49.961625 -2.405569 -12.317213 -8.499702 -0.100400 -0.000000 -30.211700
3.363293 17.150701 0.394751 5.924993 69.338236 5.734549 -10.978948 3.153609 -0.039557 -6.470439 16.792399 -3.341209 -2.005893 0.007399 13.647244 1.376244 8.865035 -8.026732 -0.246600 -0.000000 -36.356800 10.137896 -1.423574 -2.305110 9.586982 -19.217433 -26.552676 0.650674 -3.255980 48.238852 -2.512367 -12.617494 -9.261612 0.037400 -0.000000 -28.526600
3.511563 17.148446 0.439679 5.661300 68.964095 5.423276 -11.018475 3.245212 -0.114924 -6.131462 17.379034 -2.345736 -2.001735 -0.022455 12.899089 1.351555 8.793112 -7.774516 -0.205900 -0.000000 -37.078800 9.987310 -1.348109 -2.261974 10.424921 -19.362214 -27.356317 0.840836 -3.118644 46.376175 -2.611479 -12.836434 -9.947258 0.164800 0.000000 -26.875600
3.659270 17.145104 0.485860 5.363990 68.579619 5.106936 -11.061167 3.335213 -0.187451 -5.766387 17.950802 -1.407980 -1.996075 -0.047274 12.216661 1.324762 8.705043 -7.512000 -0.163900 -0.000000 -37.827100 9.828506 -1.285611 -2.198138 11.301500 -19.427344 -28.107798 1.034656 -2.965965 44.370990 -2.697501 -12.962235 -10.510124 0.266600 0.000000 -25.463200
3.806195 17.140596 0.533396 5.038661 68.187926 4.788481 -11.105945 3.422895 -0.257654 -5.378273 18.492446 -0.526506 -1.988748 -0.065726 11.613340 1.296433 8.602033 -7.245303 -0.121801 -0.000000 -38.608400 9.663784 -1.235931 -2.115464 12.209275 -19.410289 -28.793503 1.230108 -2.797334 42.224246 -2.767942 -13.000541 -10.920456 0.331600 -0.000000 -24.431100
3.952163 17.134791 0.582299 4.690709 67.795331 4.470740 -11.151604 3.507407 -0.326446 -4.970738 18.988890 0.301044 -1.979554 -0.076504 11.101314 1.267125 8.485079 -6.980251 -0.080900 -0.000000 -39.432500 9.495572 -1.197741 -2.016650 13.138320 -19.310620 -29.399867 1.425564 -2.611919 39.940054 -2.823353 -12.970812 -11.168860 0.355100 -0.000000 -23.844900
4.096981 17.127525 0.632761 4.337562 67.411938 4.168120 -11.195787 3.587902 -0.393733 -4.554366 19.421980 1.077193 -1.968239 -0.078865 10.688879 1.237970 8.359803 -6.721460 -0.041800 0.000000 -40.308900 9.326921 -1.168637 -1.903752 14.072973 -19.130281 -29.917028 1.619570 -2.408843 37.527295 -2.867186 -12.902387 -11.266446 0.338700 0.000000 -23.696600
